<svg xmlns="http://www.w3.org/2000/svg" xmlns:xlink="http://www.w3.org/1999/xlink" width="500" zoomAndPan="magnify" viewBox="0 0 375 374.999991" height="500" preserveAspectRatio="xMidYMid meet" version="1.0"><path fill="#ff914d" d="M 227.375 52.429688 L 210.527344 44.578125 L 225.945312 11.527344 C 228.117188 6.878906 233.636719 4.863281 238.300781 7.035156 C 242.949219 9.210938 244.964844 14.730469 242.792969 19.394531 Z M 119.207031 284.394531 L 102.359375 276.542969 L 86.941406 309.597656 C 84.769531 314.246094 86.785156 319.78125 91.433594 321.953125 C 96.082031 324.128906 101.617188 322.109375 103.789062 317.460938 Z M 172.367188 327.230469 L 153.648438 327.230469 L 153.648438 351.730469 L 172.367188 351.730469 Z M 231.835938 351.714844 L 94.164062 351.714844 C 89.429688 351.714844 85.582031 355.5625 85.582031 360.296875 L 85.582031 370.695312 L 240.417969 370.695312 L 240.417969 360.296875 C 240.417969 355.5625 236.585938 351.714844 231.835938 351.714844 Z M 236.800781 34.140625 C 303.890625 71.195312 331.722656 154.449219 298.839844 224.957031 C 265.917969 295.566406 184.066406 327.746094 112.484375 299.957031 L 105.089844 315.675781 C 185.382812 347.511719 277.558594 311.570312 314.546875 232.28125 C 351.585938 152.847656 319.695312 58.953125 243.421875 18.019531 " fill-opacity="1" fill-rule="nonzero"/><path fill="#008037" d="M 110.785156 280.464844 C 46.726562 250.601562 19.023438 174.457031 48.882812 110.398438 C 78.746094 46.339844 154.890625 18.636719 218.949219 48.5 C 283.007812 78.359375 310.710938 154.503906 280.847656 218.5625 C 250.988281 282.621094 174.84375 310.339844 110.785156 280.464844 Z M 110.785156 280.464844 " fill-opacity="1" fill-rule="nonzero"/><path fill="#2589ff" d="M 197.398438 98.984375 C 198.011719 99.429688 198.65625 99.871094 199.15625 100.441406 C 199.828125 101.214844 199.84375 102.300781 199.871094 103.289062 C 199.898438 104.332031 199.828125 105.378906 199.671875 106.40625 C 199.429688 108.050781 198.914062 109.753906 197.65625 110.828125 C 196.082031 112.15625 193.835938 112.140625 191.832031 112.601562 C 190.175781 112.984375 188.601562 113.730469 186.898438 113.929688 C 186.027344 114.042969 185.097656 113.988281 184.3125 113.601562 C 183.609375 113.242188 183.039062 112.613281 182.792969 111.855469 C 182.59375 111.210938 182.636719 110.496094 182.835938 109.855469 C 183.394531 107.964844 185.070312 106.679688 186.253906 105.105469 C 187.386719 103.617188 188.101562 101.832031 189.429688 100.527344 C 191.433594 98.570312 194.792969 97.910156 197.398438 98.984375 M 101.386719 53.648438 C 79.261719 66.132812 41.105469 104.863281 37.328125 153.589844 C 33.550781 202.316406 63.746094 240.933594 63.746094 240.933594 C 66.890625 235.199219 64.1875 228.1875 63.488281 221.683594 C 62.558594 212.957031 65.417969 204.320312 68.234375 196.007812 C 70.152344 190.359375 73.398438 183.652344 79.363281 183.4375 C 82.722656 183.308594 85.726562 185.441406 88.945312 186.398438 C 92.175781 187.355469 96.710938 186.269531 97.082031 182.921875 C 97.28125 181.136719 96.167969 179.503906 95.636719 177.789062 C 94.195312 173.113281 97.382812 167.976562 101.714844 165.6875 C 106.050781 163.402344 111.183594 163.316406 116.074219 163.53125 C 120.96875 163.746094 125.972656 164.203125 130.691406 162.859375 C 135.398438 161.511719 139.832031 157.835938 140.402344 152.960938 C 141.019531 147.570312 136.941406 141.789062 139.546875 137.027344 C 141.761719 132.980469 148.210938 131.234375 147.96875 126.628906 C 147.839844 124.183594 145.523438 122.28125 143.121094 121.882812 C 140.703125 121.480469 138.257812 122.253906 136.027344 123.242188 C 129.0625 126.300781 122.539062 131.59375 114.929688 131.234375 C 111.113281 131.0625 107.539062 129.449219 104.0625 127.859375 C 101.101562 126.5 97.824219 124.8125 96.839844 121.710938 C 95.78125 118.378906 97.8125 114.929688 99.742188 112.027344 C 105.148438 103.917969 111.128906 95.324219 120.25 91.90625 C 124.285156 90.390625 128.703125 90.015625 132.679688 88.371094 C 136.671875 86.726562 140.402344 83.179688 140.261719 78.875 C 140.089844 73.613281 134.640625 70.367188 129.890625 68.105469 C 125.085938 65.832031 120.292969 63.558594 115.488281 61.285156 C 109.796875 62.644531 103.359375 59.152344 101.386719 53.648438 M 202.332031 225 C 202.230469 224.914062 202.160156 224.828125 202.046875 224.742188 C 201.917969 224.65625 201.789062 224.570312 201.644531 224.484375 C 201.371094 224.3125 201.101562 224.15625 200.816406 224.011719 C 200.257812 223.726562 199.671875 223.46875 199.070312 223.269531 C 197.953125 222.898438 196.78125 222.683594 195.59375 222.667969 C 193.222656 222.625 190.847656 223.371094 188.945312 224.800781 C 187.027344 226.257812 185.683594 228.332031 183.882812 229.933594 C 182.164062 231.464844 180.046875 232.539062 178.476562 234.238281 C 177.015625 235.828125 176.101562 237.902344 175.929688 240.058594 C 175.886719 240.5625 175.886719 241.074219 176.074219 241.53125 C 176.574219 242.761719 178.160156 243.164062 179.476562 242.964844 C 180.792969 242.761719 182.035156 242.164062 183.367188 242.089844 C 185.753906 241.949219 188.230469 243.519531 190.433594 242.589844 C 191.933594 241.960938 192.761719 240.375 194.035156 239.359375 C 195.265625 238.386719 196.855469 237.984375 198.414062 237.773438 C 199.972656 237.558594 201.558594 237.5 203.074219 237.085938 C 204.417969 236.714844 205.777344 235.96875 206.335938 234.695312 C 206.621094 234.023438 206.664062 233.28125 206.59375 232.550781 C 206.464844 231.308594 206.019531 230.132812 205.433594 229.046875 C 204.835938 227.945312 204.105469 226.886719 203.273438 225.957031 C 202.960938 225.628906 202.644531 225.316406 202.332031 225 M 183.78125 38.515625 C 184.867188 43.949219 186.027344 48.242188 189.332031 52.6875 C 190.589844 54.375 192.132812 55.878906 193.050781 57.765625 C 194.308594 60.324219 194.234375 63.5 192.863281 66.003906 C 192.433594 66.789062 191.863281 67.632812 192.0625 68.507812 C 192.21875 69.234375 192.878906 69.75 193.476562 70.195312 C 197.28125 72.96875 201.144531 75.773438 205.535156 77.488281 C 208.96875 78.820312 213.230469 80.003906 214.214844 83.550781 C 215.503906 88.128906 209.996094 92.605469 211.339844 97.167969 C 216.0625 96.039062 220.796875 94.894531 225.515625 93.765625 C 227.160156 93.363281 228.875 92.964844 230.550781 93.265625 C 232.695312 93.636719 234.46875 95.09375 236.398438 96.125 C 238.328125 97.152344 240.875 97.699219 242.578125 96.324219 C 244.152344 95.066406 244.308594 92.792969 244.636719 90.804688 C 244.964844 88.816406 245.980469 86.511719 247.984375 86.296875 C 248.871094 86.210938 249.742188 86.570312 250.558594 86.929688 C 255.089844 88.914062 259.695312 90.945312 263.429688 94.191406 C 268.148438 98.3125 271.78125 104.519531 277.960938 105.621094 C 277.960938 105.621094 268.707031 79.019531 247.324219 65.53125 C 225.945312 52.046875 201.058594 37.742188 184.183594 38.53125 M 181.894531 290.605469 C 180.679688 287.859375 177.21875 287.140625 174.285156 286.457031 C 171.367188 285.753906 167.964844 283.96875 168.078125 280.964844 C 168.148438 279.304688 169.308594 277.945312 170.195312 276.53125 C 171.082031 275.113281 171.652344 273.183594 170.609375 271.894531 C 170.222656 271.425781 169.679688 271.109375 169.152344 270.824219 C 164.84375 268.476562 160.082031 266.304688 155.21875 266.890625 C 146.953125 267.878906 140.074219 276.53125 131.980469 274.585938 C 125.085938 272.925781 122.183594 264.574219 116.148438 260.855469 C 115.390625 260.382812 114.574219 259.996094 113.957031 259.351562 C 113.242188 258.609375 112.859375 257.621094 112.457031 256.691406 C 110.96875 253.261719 108.882812 250.085938 106.320312 247.355469 C 105.421875 246.394531 104.417969 245.464844 103.175781 245.078125 C 101.703125 244.636719 100.113281 245.023438 98.671875 245.550781 C 95.28125 246.796875 92.175781 248.828125 89.6875 251.429688 C 87.285156 247.46875 82.878906 245.066406 78.359375 244.066406 C 73.839844 243.0625 69.152344 243.292969 64.53125 243.535156 C 64.53125 243.535156 91.332031 280.933594 129.546875 287.5 C 167.761719 294.066406 181.894531 290.605469 181.894531 290.605469 Z M 233.4375 272.238281 C 246.824219 264.53125 272.324219 239.746094 277.960938 228.359375 C 308.453125 151.371094 285.296875 125.085938 285.296875 125.085938 C 277.230469 121.867188 267.0625 125.371094 262.671875 132.851562 C 261.828125 134.28125 261.167969 135.855469 260.027344 137.054688 C 258.652344 138.515625 256.722656 139.289062 255.089844 140.433594 C 251 143.277344 248.414062 148.511719 243.550781 149.628906 C 237.957031 150.902344 233.007812 146.023438 227.515625 144.378906 C 222.769531 142.964844 217.304688 144.164062 213.601562 147.46875 C 212.585938 148.371094 211.683594 149.429688 210.484375 150.085938 C 208.539062 151.144531 206.179688 150.945312 203.960938 151 C 201.53125 151.058594 199.011719 151.5 197.066406 152.945312 C 195.121094 154.40625 193.949219 157.09375 194.851562 159.339844 C 195.164062 160.140625 195.722656 160.855469 195.796875 161.714844 C 195.867188 162.601562 195.410156 163.445312 194.921875 164.203125 C 190.847656 170.59375 184.683594 175.613281 181.621094 182.539062 C 179.363281 187.65625 178.992188 193.390625 178.660156 198.984375 C 178.476562 202.160156 178.675781 206.0625 181.523438 207.507812 C 184.210938 208.867188 187.3125 207.023438 190.074219 205.820312 C 198.210938 202.273438 207.582031 204.332031 216.203125 206.449219 C 220.082031 207.394531 224.441406 208.722656 226.171875 212.3125 C 227.945312 215.988281 226.128906 220.351562 224 223.839844 C 221.867188 227.332031 219.308594 230.964844 219.578125 235.039062 C 220.023438 241.777344 228.074219 246.640625 227.332031 253.347656 C 227.160156 254.863281 226.542969 256.363281 226.859375 257.851562 C 227.34375 260.183594 229.820312 261.414062 231.507812 263.101562 C 233.925781 265.589844 234.726562 269.023438 233.4375 272.238281 " fill-opacity="1" fill-rule="nonzero"/><path fill="#000000" d="M 247.941406 15.605469 C 247.996094 10.441406 245.09375 5.464844 240.101562 3.132812 C 233.308594 -0.0429688 225.214844 2.917969 222.054688 9.710938 L 208.167969 39.503906 C 179.503906 29.519531 148.542969 29.675781 119.636719 40.203125 C 86.441406 52.273438 59.925781 76.574219 44.996094 108.582031 C 30.0625 140.605469 28.488281 176.515625 40.574219 209.710938 C 51.101562 238.617188 70.882812 262.441406 96.9375 277.976562 L 83.050781 307.765625 C 81.523438 311.054688 81.351562 314.746094 82.59375 318.148438 C 83.839844 321.554688 86.328125 324.285156 89.617188 325.816406 C 91.460938 326.671875 93.421875 327.089844 95.335938 327.089844 C 99.855469 327.089844 104.203125 324.8125 106.75 320.882812 C 120.753906 326.101562 135.054688 329.347656 149.34375 330.722656 L 149.34375 347.410156 L 94.164062 347.410156 C 87.070312 347.410156 81.292969 353.1875 81.292969 360.28125 L 81.292969 370.679688 C 81.292969 373.054688 83.210938 374.972656 85.582031 374.972656 L 240.417969 374.972656 C 242.792969 374.972656 244.707031 373.054688 244.707031 370.679688 L 244.707031 360.28125 C 244.707031 353.1875 238.929688 347.410156 231.835938 347.410156 L 176.644531 347.410156 L 176.644531 331.105469 C 236.210938 327.101562 291.648438 291.503906 318.433594 234.066406 C 355.835938 153.90625 324.84375 58.523438 247.941406 15.605469 Z M 284.738281 220.378906 C 313.617188 158.4375 290.230469 85.296875 232.78125 50.988281 L 238.015625 39.773438 C 300.972656 76.757812 326.03125 156.523438 294.964844 223.140625 C 270.910156 274.714844 219.292969 305.578125 165.289062 305.578125 C 149.484375 305.578125 133.480469 302.902344 117.90625 297.355469 L 121.582031 289.460938 C 135.742188 294.378906 150.285156 296.738281 164.660156 296.738281 C 214.503906 296.738281 262.328125 268.449219 284.738281 220.378906 Z M 232.921875 259.609375 C 231.679688 258.566406 230.175781 257.910156 230.40625 256.234375 C 230.734375 253.660156 231.179688 251.53125 230.421875 248.96875 C 229.261719 245.109375 226.53125 242.121094 224.542969 238.6875 C 223.882812 237.558594 223.253906 236.140625 223.140625 235.027344 C 222.898438 232.738281 224.097656 230.578125 225.214844 228.660156 C 227.773438 224.285156 230.933594 219.808594 230.378906 214.460938 C 229.835938 209.097656 225.828125 205.878906 221.066406 204.117188 C 216.703125 202.515625 211.898438 201.601562 207.308594 200.914062 C 202.03125 200.128906 196.566406 199.914062 191.40625 201.488281 C 189.128906 202.1875 187.085938 203.519531 184.796875 204.148438 C 183.082031 204.621094 182.652344 204.203125 182.324219 202.6875 C 181.949219 200.914062 182.207031 198.855469 182.324219 197.011719 C 182.496094 194.308594 182.722656 191.617188 183.28125 188.957031 C 184.28125 184.324219 186.484375 180.449219 189.460938 176.789062 C 192.492188 173.039062 196.382812 169.394531 198.511719 165.03125 C 199.171875 163.671875 199.515625 162.242188 199.214844 160.742188 C 199.011719 159.753906 198.242188 158.839844 198.113281 157.878906 C 197.898438 156.292969 199.699219 155.292969 200.988281 154.949219 C 203.160156 154.363281 205.390625 154.664062 207.59375 154.449219 C 210.46875 154.175781 212.6875 153.132812 214.816406 151.1875 C 217.949219 148.328125 221.667969 146.554688 226 147.667969 C 230.40625 148.796875 233.996094 152.003906 238.472656 153.019531 C 243.878906 154.234375 248.371094 152.003906 252.101562 148.210938 C 253.648438 146.640625 255.078125 144.835938 256.863281 143.519531 C 259.183594 141.832031 261.671875 140.816406 263.445312 138.445312 C 264.832031 136.585938 265.617188 134.351562 267.191406 132.621094 C 268.636719 131.019531 270.367188 129.761719 272.339844 128.863281 C 275.730469 127.316406 279.460938 127.074219 282.996094 128.089844 C 291.71875 156.378906 290.402344 187.859375 276.945312 216.734375 C 267.621094 236.726562 253.589844 253.0625 236.800781 265.03125 C 236.042969 262.984375 234.695312 261.113281 232.921875 259.609375 Z M 229.835938 13.328125 C 231.007812 10.828125 233.980469 9.738281 236.484375 10.914062 C 238.988281 12.085938 240.074219 15.058594 238.902344 17.5625 L 225.300781 46.726562 L 216.234375 42.492188 Z M 217.148438 52.386719 C 236 61.183594 251.585938 74.15625 263.34375 89.675781 C 260.484375 87.65625 257.367188 86.027344 254.074219 84.554688 C 251.273438 83.308594 248.339844 81.808594 245.335938 83.410156 C 242.976562 84.652344 241.660156 87.285156 241.203125 89.816406 C 240.976562 91.074219 241.289062 93.777344 239.53125 93.464844 C 238.386719 93.265625 237.386719 92.519531 236.414062 91.933594 C 235.140625 91.160156 233.808594 90.433594 232.378906 89.988281 C 228.804688 88.886719 225.042969 90.175781 221.554688 91.003906 C 219.621094 91.476562 217.675781 91.933594 215.746094 92.40625 C 215.859375 92.164062 215.960938 91.933594 216.074219 91.703125 C 217.105469 89.472656 218.105469 87.140625 218.007812 84.625 C 217.761719 79.132812 213.070312 76.5 208.507812 74.757812 C 206.121094 73.839844 203.863281 72.8125 201.671875 71.46875 C 200.484375 70.738281 199.328125 69.953125 198.183594 69.152344 C 197.570312 68.722656 196.953125 68.277344 196.351562 67.835938 C 196.296875 67.792969 196.238281 67.75 196.179688 67.691406 C 196.609375 66.863281 196.9375 65.5625 197.082031 65.074219 C 197.46875 63.6875 197.625 62.171875 197.496094 60.742188 C 197.210938 57.664062 195.9375 55.21875 194.050781 52.816406 C 192.320312 50.628906 190.660156 48.5 189.558594 45.910156 C 189.160156 44.964844 188.84375 43.992188 188.558594 43.007812 C 198.285156 44.953125 207.878906 48.070312 217.148438 52.386719 Z M 248.785156 89.660156 C 248.839844 89.546875 248.898438 89.472656 248.941406 89.515625 C 249.027344 89.617188 248.925781 89.644531 248.785156 89.660156 Z M 195.566406 67.292969 C 195.566406 67.292969 195.550781 67.277344 195.550781 67.277344 C 195.324219 67.234375 195.238281 67.175781 195.292969 67.078125 C 195.4375 66.863281 195.523438 66.949219 195.566406 67.292969 Z M 122.570312 48.253906 C 136.371094 43.234375 150.671875 40.730469 164.945312 40.730469 C 170.25 40.730469 175.558594 41.089844 180.835938 41.777344 C 181.863281 46.210938 183.351562 50.515625 186.054688 54.234375 C 187.429688 56.121094 189.589844 57.964844 190.1875 60.296875 C 190.847656 62.886719 189.203125 64.417969 188.628906 66.761719 C 187.785156 70.222656 190.21875 72.210938 192.707031 74.011719 C 195.136719 75.773438 197.597656 77.503906 200.242188 78.917969 C 202.574219 80.164062 205.046875 80.976562 207.464844 82.007812 C 208.738281 82.550781 210.425781 83.308594 210.769531 84.46875 C 210.96875 85.167969 210.753906 85.828125 210.425781 86.757812 C 210.082031 87.742188 209.597656 88.671875 209.167969 89.632812 C 207.953125 92.378906 207.152344 95.082031 207.894531 98.082031 C 208.367188 100 210.453125 101.03125 212.300781 100.585938 C 215.445312 99.828125 218.605469 99.070312 221.753906 98.3125 C 223.210938 97.953125 224.683594 97.613281 226.144531 97.253906 C 227.386719 96.953125 228.761719 96.496094 230.0625 96.753906 C 231.234375 96.980469 232.308594 97.8125 233.308594 98.414062 C 234.511719 99.140625 235.769531 99.800781 237.128906 100.214844 C 239.902344 101.058594 243.148438 100.730469 245.292969 98.640625 C 247.253906 96.726562 247.625 94.265625 248.082031 91.703125 C 248.082031 91.734375 248.382812 90.605469 248.640625 89.945312 C 249.242188 90.203125 249.855469 90.460938 250.457031 90.71875 C 255.433594 92.933594 259.898438 95.410156 263.671875 99.386719 C 267.046875 102.933594 270.421875 106.835938 275.101562 108.496094 C 277.058594 112.355469 278.804688 116.332031 280.347656 120.378906 C 273.554688 119.9375 266.476562 122.65625 262 127.761719 C 260.382812 129.589844 259.355469 131.664062 258.082031 133.710938 C 256.980469 135.496094 254.933594 136.199219 253.273438 137.355469 C 251.414062 138.660156 249.84375 140.230469 248.296875 141.875 C 246.953125 143.308594 245.582031 144.9375 243.777344 145.796875 C 240.230469 147.46875 236.15625 144.394531 233.09375 142.863281 C 228.445312 140.546875 223.511719 139.472656 218.390625 140.902344 C 215.917969 141.589844 213.6875 142.804688 211.683594 144.40625 C 209.839844 145.894531 208.894531 147.296875 206.378906 147.382812 C 201.085938 147.570312 195.507812 147.882812 192.363281 152.859375 C 191.003906 155.019531 190.53125 157.851562 191.375 160.28125 C 191.5625 160.828125 191.976562 161.398438 192.132812 161.941406 C 192.105469 161.984375 192.046875 162.042969 191.933594 162.140625 C 191.089844 162.902344 190.488281 164.316406 189.789062 165.230469 C 186.828125 169.078125 183.394531 172.570312 180.722656 176.660156 C 177.632812 181.378906 176.246094 186.628906 175.585938 192.164062 C 175.042969 196.78125 174.171875 202.359375 176.171875 206.734375 C 177.160156 208.894531 179.003906 210.539062 181.308594 211.210938 C 183.996094 212 186.699219 211.140625 189.1875 210.070312 C 191.519531 209.066406 193.722656 208.09375 196.253906 207.679688 C 198.65625 207.292969 201.144531 207.378906 203.546875 207.59375 C 208.425781 208.039062 213.515625 209.167969 218.179688 210.667969 C 219.738281 211.171875 221.539062 211.855469 222.554688 213.214844 C 223.742188 214.789062 223.253906 216.875 222.640625 218.578125 C 220.910156 223.296875 217.003906 226.929688 216.191406 232.050781 C 215.445312 236.683594 217.191406 240.644531 219.722656 244.421875 C 221.695312 247.355469 224.269531 250.242188 223.628906 253.648438 C 223.082031 256.535156 222.925781 259.167969 224.769531 261.640625 C 226.074219 263.386719 228.074219 264.402344 229.390625 266.105469 C 230.175781 267.105469 230.464844 268.179688 230.40625 269.277344 C 216.105469 278.1875 200.113281 284.109375 183.46875 286.671875 C 180.976562 284.183594 177.246094 283.824219 173.882812 282.582031 C 173.3125 282.367188 172.65625 282.078125 172.195312 281.722656 C 172.140625 281.679688 171.839844 281.320312 171.710938 281.179688 C 171.726562 281.0625 171.683594 280.734375 171.625 280.921875 C 171.78125 280.320312 172.296875 279.75 172.640625 279.234375 C 173.382812 278.089844 174.070312 276.917969 174.441406 275.570312 C 176.144531 269.277344 169.535156 266.632812 164.832031 264.816406 C 160.183594 263.015625 155.164062 262.613281 150.445312 264.375 C 146.351562 265.890625 142.804688 268.464844 138.816406 270.179688 C 135.769531 271.480469 132.851562 271.738281 130.105469 269.808594 C 127.273438 267.804688 125.214844 264.53125 122.839844 261.957031 C 121.480469 260.46875 119.980469 259.109375 118.292969 257.996094 C 117.664062 257.582031 116.875 257.28125 116.375 256.722656 C 115.589844 255.804688 115.230469 254.246094 114.6875 253.175781 C 113.429688 250.671875 111.828125 248.371094 110.027344 246.210938 C 108.050781 243.851562 105.75 241.675781 102.546875 241.363281 C 98.199219 240.945312 93.59375 243.378906 90.003906 246.265625 C 84.3125 240.644531 75.914062 239.675781 67.921875 239.832031 C 69.480469 234.480469 68.179688 228.960938 67.261719 223.414062 C 66.160156 216.71875 67.492188 210.140625 69.421875 203.734375 C 70.894531 198.839844 72.28125 192.578125 75.972656 188.789062 C 79.890625 184.753906 84.511719 189.359375 89.230469 190.101562 C 95.039062 191.019531 101.773438 187.542969 100.457031 180.792969 C 99.941406 178.132812 98.183594 176.160156 99.214844 173.382812 C 100 171.265625 101.757812 169.609375 103.761719 168.621094 C 109.410156 165.832031 116.390625 167.277344 122.410156 167.335938 C 128.804688 167.390625 135.582031 166.089844 140.117188 161.199219 C 142.132812 159.023438 143.492188 156.378906 143.863281 153.417969 C 144.25 150.328125 143.449219 147.3125 142.75 144.335938 C 142.277344 142.304688 141.746094 139.746094 142.964844 138.199219 C 144.308594 136.46875 146.339844 135.324219 147.953125 133.867188 C 149.855469 132.164062 151.273438 129.992188 151.472656 127.386719 C 151.714844 124.269531 149.941406 121.4375 147.382812 119.78125 C 141.433594 115.902344 134.28125 119.878906 128.875 122.796875 C 123.925781 125.457031 118.535156 128.675781 112.699219 127.332031 C 109.769531 126.644531 106.90625 125.359375 104.191406 123.96875 C 102.375 123.039062 99.828125 121.769531 100.113281 119.335938 C 100.457031 116.492188 102.789062 113.816406 104.347656 111.511719 C 105.90625 109.226562 107.496094 106.9375 109.269531 104.804688 C 112.730469 100.644531 116.847656 96.753906 122.082031 95.023438 C 128.304688 92.949219 135.113281 92.632812 139.988281 87.714844 C 144.492188 83.167969 144.980469 76.585938 140.960938 71.582031 C 137.269531 66.992188 131.222656 64.789062 126.042969 62.34375 C 124.371094 61.554688 122.699219 60.753906 121.039062 59.96875 C 119.40625 59.195312 117.304688 57.695312 115.476562 57.695312 C 114.230469 57.695312 113.15625 58.109375 111.871094 57.9375 C 110.925781 57.808594 109.925781 57.507812 109.054688 57.050781 C 108.179688 56.609375 107.351562 56.019531 106.652344 55.347656 C 111.742188 52.644531 117.046875 50.273438 122.570312 48.253906 Z M 52.773438 112.214844 C 63.230469 89.800781 79.734375 71.453125 100.386719 58.894531 C 103.820312 63.257812 109.28125 65.660156 114.972656 64.972656 C 120.265625 67.433594 125.6875 69.75 130.777344 72.570312 C 133.851562 74.285156 138.402344 77.386719 135.96875 81.363281 C 133.125 86.027344 126.457031 86.339844 121.738281 87.65625 C 116.21875 89.203125 111.425781 92.25 107.378906 96.28125 C 103.476562 100.15625 100.285156 104.734375 97.238281 109.296875 C 93.734375 114.515625 90.804688 120.882812 95.480469 126.402344 C 97.253906 128.488281 99.769531 129.804688 102.21875 130.933594 C 104.992188 132.207031 107.824219 133.539062 110.8125 134.226562 C 116.992188 135.65625 122.753906 133.96875 128.273438 131.207031 C 130.933594 129.878906 133.507812 128.359375 136.183594 127.058594 C 138.113281 126.128906 140.945312 124.65625 143.105469 125.570312 C 143.621094 125.785156 144.066406 126.117188 144.308594 126.628906 C 144.464844 126.972656 144.40625 126.859375 144.292969 127.1875 C 144.464844 126.628906 143.878906 127.933594 144.152344 127.546875 C 142.992188 129.160156 141.074219 130.261719 139.589844 131.535156 C 137.714844 133.136719 136.140625 135.125 135.46875 137.542969 C 134.695312 140.316406 135.183594 143.234375 135.8125 145.996094 C 136.328125 148.226562 137.226562 150.699219 136.757812 153.019531 C 136.355469 154.992188 134.910156 156.652344 133.28125 157.75 C 128.332031 161.042969 122.011719 160.242188 116.390625 159.984375 C 110.496094 159.710938 103.890625 159.867188 98.796875 163.273438 C 94.121094 166.40625 90.945312 171.8125 91.890625 177.546875 C 92.121094 178.890625 92.691406 180.046875 93.148438 181.308594 C 93.277344 181.636719 93.476562 182.066406 93.535156 182.410156 C 93.535156 182.367188 93.40625 183.023438 93.433594 182.707031 C 93.449219 182.636719 93.449219 182.59375 93.464844 182.566406 C 93.449219 182.609375 93.390625 182.707031 93.265625 182.78125 C 93.464844 182.664062 92.921875 182.910156 92.890625 182.921875 C 92.675781 183.007812 91.847656 183.179688 91.933594 183.167969 C 90.816406 183.296875 90.132812 183.09375 89.015625 182.707031 C 86.15625 181.691406 83.582031 180.234375 80.507812 179.949219 C 77.945312 179.71875 75.285156 180.449219 73.183594 181.894531 C 68.9375 184.8125 66.675781 189.703125 65.003906 194.421875 C 62.816406 200.585938 60.855469 206.863281 60.039062 213.371094 C 59.640625 216.5625 59.625 219.738281 60.039062 222.910156 C 60.425781 225.828125 61.113281 228.703125 61.457031 231.636719 C 61.5 231.949219 61.527344 232.265625 61.554688 232.578125 C 56.320312 224.613281 51.960938 216.003906 48.628906 206.820312 C 37.34375 175.742188 38.816406 142.148438 52.773438 112.214844 Z M 72.640625 246.953125 C 78.117188 247.195312 83.566406 248.5 86.585938 253.246094 C 87.800781 255.164062 90.53125 255.664062 92.207031 253.976562 C 93.777344 252.375 95.464844 251.074219 97.453125 250.015625 C 98.839844 249.269531 101.085938 247.925781 102.617188 248.785156 C 104.261719 249.714844 105.679688 252.015625 106.695312 253.574219 C 107.964844 255.519531 108.851562 257.609375 109.882812 259.683594 C 110.96875 261.886719 112.773438 262.886719 114.71875 264.203125 C 116.132812 265.160156 117.320312 266.476562 118.449219 267.75 C 120.910156 270.566406 123.097656 273.554688 126.160156 275.757812 C 129.503906 278.160156 133.539062 278.875 137.558594 278.101562 C 141.390625 277.359375 144.835938 275.1875 148.210938 273.339844 C 151.472656 271.554688 154.835938 269.921875 158.652344 270.507812 C 160.882812 270.851562 163.027344 271.726562 165.046875 272.726562 C 165.730469 273.070312 166.789062 273.425781 167.460938 273.941406 C 167.320312 274.242188 167.105469 274.726562 167.089844 274.742188 C 165.703125 277.257812 164.101562 279.277344 164.632812 282.367188 C 165.03125 284.753906 166.617188 286.628906 168.605469 287.929688 C 168.691406 287.984375 168.792969 288.027344 168.878906 288.085938 C 150.058594 288.730469 130.804688 285.070312 112.601562 276.585938 C 97.167969 269.378906 83.667969 259.28125 72.640625 246.953125 Z M 99.914062 315.632812 C 98.742188 318.136719 95.765625 319.222656 93.265625 318.050781 C 92.046875 317.476562 91.132812 316.476562 90.675781 315.230469 C 90.21875 313.972656 90.273438 312.613281 90.847656 311.398438 L 104.449219 282.238281 L 113.515625 286.46875 Z M 231.835938 356.007812 C 234.195312 356.007812 236.128906 357.9375 236.128906 360.296875 L 236.128906 366.40625 L 89.875 366.40625 L 89.875 360.296875 C 89.875 357.9375 91.804688 356.007812 94.164062 356.007812 Z M 157.9375 347.425781 L 157.9375 331.523438 L 168.078125 331.523438 L 168.078125 347.441406 L 157.9375 347.441406 Z M 310.667969 230.464844 C 275.472656 305.933594 188.199219 341.691406 110.539062 313.15625 L 114.246094 305.207031 C 131.007812 311.269531 148.253906 314.160156 165.273438 314.160156 C 222.527344 314.160156 277.246094 281.449219 302.746094 226.773438 C 335.796875 155.90625 308.9375 70.996094 241.660156 31.964844 L 245.367188 24.011719 C 317.175781 65.175781 345.894531 154.917969 310.667969 230.464844 Z M 186.828125 109.925781 Z M 182.523438 116.691406 C 185.027344 118.035156 187.902344 117.5625 190.476562 116.734375 C 191.417969 116.433594 192.347656 116.132812 193.320312 115.945312 C 194.292969 115.746094 195.292969 115.644531 196.253906 115.402344 C 198.726562 114.773438 200.800781 113.257812 202.058594 111.027344 C 203.445312 108.59375 203.5625 106.019531 203.460938 103.289062 C 203.402344 101.832031 203.289062 100.34375 202.53125 99.054688 C 201.757812 97.699219 200.445312 96.796875 199.199219 95.894531 C 198.839844 95.636719 198.414062 95.496094 197.984375 95.4375 C 193.949219 94.035156 188.929688 95.4375 186.253906 98.742188 C 185.496094 99.671875 184.867188 100.65625 184.253906 101.671875 C 184.011719 102.074219 183.753906 102.472656 183.496094 102.859375 C 183.46875 102.917969 183.4375 102.945312 183.425781 102.988281 C 183.253906 103.1875 183.082031 103.390625 182.910156 103.589844 C 181.4375 105.25 179.847656 106.949219 179.320312 109.195312 C 178.648438 112.128906 179.804688 115.230469 182.523438 116.691406 Z M 196.339844 102.675781 C 196.339844 102.6875 196.351562 102.6875 196.339844 102.703125 C 196.339844 102.6875 196.324219 102.6875 196.324219 102.660156 Z M 196.195312 102.34375 C 196.195312 102.375 196.222656 102.402344 196.238281 102.429688 C 196.195312 102.386719 196.179688 102.375 196.167969 102.34375 C 196.179688 102.34375 196.179688 102.34375 196.195312 102.34375 Z M 186.570312 110.296875 C 186.585938 110.269531 186.628906 110.210938 186.683594 110.125 C 186.65625 110.140625 186.640625 110.15625 186.628906 110.167969 C 186.640625 110.15625 186.65625 110.140625 186.683594 110.113281 C 186.757812 110.039062 186.800781 109.96875 186.828125 109.925781 C 187.285156 109.394531 187.757812 108.882812 188.214844 108.351562 C 189.359375 107.023438 190.21875 105.5625 191.160156 104.089844 C 191.261719 103.933594 191.363281 103.789062 191.460938 103.632812 C 191.492188 103.589844 191.503906 103.5625 191.519531 103.53125 C 191.546875 103.519531 191.546875 103.503906 191.574219 103.476562 C 191.703125 103.347656 191.832031 103.203125 191.960938 103.074219 C 191.976562 103.0625 192.003906 103.019531 192.046875 102.988281 C 192.0625 102.976562 192.078125 102.960938 192.105469 102.933594 C 192.164062 102.890625 192.234375 102.832031 192.277344 102.789062 C 192.449219 102.6875 192.621094 102.574219 192.804688 102.488281 C 192.804688 102.472656 192.878906 102.429688 192.964844 102.386719 C 193.078125 102.34375 193.191406 102.316406 193.304688 102.273438 C 193.464844 102.230469 193.621094 102.1875 193.777344 102.144531 C 193.863281 102.132812 193.9375 102.101562 194.023438 102.089844 C 194.078125 102.074219 194.109375 102.074219 194.136719 102.058594 C 194.152344 102.058594 194.164062 102.058594 194.164062 102.058594 C 194.378906 102.046875 194.578125 102.046875 194.78125 102.046875 C 194.9375 102.046875 195.09375 102.058594 195.25 102.058594 C 195.265625 102.074219 195.265625 102.074219 195.292969 102.074219 C 195.464844 102.132812 195.625 102.175781 195.796875 102.21875 C 195.867188 102.273438 195.9375 102.332031 196.007812 102.375 C 196.023438 102.386719 196.039062 102.402344 196.050781 102.402344 C 196.125 102.460938 196.179688 102.503906 196.222656 102.53125 C 196.179688 102.515625 196.152344 102.488281 196.109375 102.460938 C 196.152344 102.503906 196.179688 102.53125 196.210938 102.558594 C 196.210938 102.890625 196.308594 103.347656 196.324219 103.574219 C 196.351562 104.363281 196.394531 105.132812 196.367188 105.921875 C 196.367188 105.964844 196.382812 105.964844 196.382812 105.992188 C 196.351562 106.121094 196.296875 106.292969 196.296875 106.320312 C 196.253906 106.492188 196.195312 106.664062 196.152344 106.820312 C 196.136719 106.878906 196.082031 107.023438 196.023438 107.136719 C 195.910156 107.324219 195.710938 107.695312 195.679688 107.75 C 195.679688 107.765625 195.679688 107.765625 195.679688 107.765625 C 195.59375 107.851562 195.507812 107.953125 195.421875 108.039062 C 195.378906 108.082031 195.292969 108.136719 195.222656 108.195312 C 195.164062 108.222656 195.121094 108.253906 195.09375 108.265625 C 195.039062 108.296875 194.878906 108.351562 194.808594 108.382812 C 194.722656 108.410156 194.636719 108.425781 194.609375 108.4375 C 193.105469 108.867188 191.519531 108.953125 190.015625 109.382812 C 189.246094 109.609375 188.488281 109.882812 187.714844 110.113281 C 187.328125 110.210938 186.941406 110.3125 186.554688 110.398438 C 186.542969 110.398438 186.542969 110.398438 186.542969 110.398438 C 186.527344 110.398438 186.511719 110.398438 186.511719 110.398438 C 186.527344 110.367188 186.542969 110.339844 186.570312 110.296875 Z M 176.230469 246.167969 C 177.71875 246.695312 179.261719 246.609375 180.777344 246.324219 C 182.050781 246.09375 183.179688 245.566406 184.480469 245.78125 C 186.140625 246.050781 187.730469 246.582031 189.429688 246.4375 C 191.605469 246.265625 193.433594 245.28125 194.851562 243.664062 C 195.710938 242.691406 196.28125 241.949219 197.441406 241.617188 C 198.957031 241.191406 200.472656 241.132812 202.046875 240.902344 C 206.222656 240.316406 210.253906 237.757812 210.199219 233.082031 C 210.140625 229.246094 207.953125 225.699219 205.363281 222.996094 C 205.21875 222.796875 205.046875 222.625 204.863281 222.46875 C 204.5625 222.183594 204.261719 221.980469 203.949219 221.824219 C 198.613281 218.265625 191.5625 218.148438 186.382812 222.269531 C 183.925781 224.226562 182.308594 226.886719 179.691406 228.691406 C 176.601562 230.804688 174.269531 233.179688 172.984375 236.769531 C 171.726562 240.316406 172.253906 244.722656 176.230469 246.167969 Z M 183.308594 234.855469 C 185.667969 233.238281 187.484375 231.464844 189.359375 229.332031 C 190.859375 227.617188 192.363281 226.574219 194.4375 226.300781 C 196.195312 226.085938 198.414062 226.457031 199.800781 227.53125 C 201.371094 229.0625 202.375 230.636719 203.003906 232.738281 C 203.117188 233.082031 203.175781 233.136719 202.746094 233.410156 C 202.015625 233.851562 200.945312 233.894531 200.171875 233.996094 C 197.511719 234.324219 194.722656 234.539062 192.449219 236.097656 C 191.40625 236.8125 190.632812 237.65625 189.800781 238.601562 C 189.117188 239.375 189.128906 239.402344 188.257812 239.289062 C 186.84375 239.117188 185.496094 238.628906 184.066406 238.558594 C 182.652344 238.472656 181.25 238.859375 179.890625 239.203125 C 179.863281 239.214844 179.792969 239.230469 179.691406 239.246094 C 180.292969 237.257812 181.636719 236.011719 183.308594 234.855469 Z M 183.308594 234.855469 " fill-opacity="1" fill-rule="nonzero"/></svg>