<svg xmlns="http://www.w3.org/2000/svg" xmlns:xlink="http://www.w3.org/1999/xlink" width="500" zoomAndPan="magnify" viewBox="0 0 375 374.999991" height="500" preserveAspectRatio="xMidYMid meet" version="1.0"><path fill="#d78472" d="M 118.75 169.449219 C 119.285156 176.324219 113.480469 179.59375 108.867188 181.113281 C 106.25 181.945312 104.613281 184.625 105.089844 187.300781 C 105.476562 189.382812 105.507812 191.792969 104.492188 193.785156 C 102.144531 198.488281 89.671875 192.773438 86.726562 200.332031 C 83.808594 207.890625 97.054688 206.90625 99.34375 212.589844 C 100.742188 216.070312 98.332031 219.402344 96.21875 221.484375 C 94.730469 222.972656 93.867188 224.964844 93.839844 227.078125 C 93.839844 231.125 92.828125 237.730469 86.726562 241.089844 C 77.589844 246.148438 60.507812 231.332031 50.625 238.53125 C 40.742188 245.703125 45.804688 267.035156 49.851562 277.714844 C 53.867188 288.425781 80.328125 332.875 80.328125 366.613281 L 2.976562 366.613281 L 2.976562 75.824219 C 2.976562 75.824219 40.03125 62.019531 66.488281 80.96875 C 92.917969 99.890625 81.933594 128.808594 91.191406 143.476562 C 100.445312 158.144531 117.855469 158.234375 118.75 169.449219 Z M 118.75 169.449219 " fill-opacity="1" fill-rule="nonzero"/><path fill="#f4d59f" d="M 355.089844 99.773438 L 355.089844 239.753906 L 159.644531 239.753906 L 159.644531 99.773438 Z M 292.113281 163.054688 C 292.113281 143.863281 276.578125 128.304688 257.382812 128.304688 C 238.183594 128.304688 222.648438 143.863281 222.648438 163.054688 C 222.648438 176.5625 230.355469 188.28125 241.667969 193.996094 C 241.667969 194.023438 241.667969 194.023438 241.667969 194.023438 C 242.558594 194.472656 243.511719 194.886719 244.464844 195.273438 L 244.464844 195.304688 L 244.316406 208.574219 L 244.167969 219.582031 L 248.632812 219.582031 C 248.632812 219.582031 249.671875 228.921875 257.382812 228.921875 C 265.089844 228.921875 266.132812 219.582031 266.132812 219.582031 L 270.59375 219.582031 L 270.59375 195.15625 C 271.429688 194.828125 272.261719 194.441406 273.066406 194.023438 C 284.375 188.3125 292.113281 176.5625 292.113281 163.054688 Z M 292.113281 163.054688 " fill-opacity="1" fill-rule="nonzero"/><path fill="#fbe2ae" d="M 257.382812 219.582031 L 266.132812 219.582031 C 266.132812 219.582031 265.089844 228.921875 257.382812 228.921875 C 249.671875 228.921875 248.632812 219.582031 248.632812 219.582031 Z M 257.382812 219.582031 " fill-opacity="1" fill-rule="nonzero"/><path fill="#d2d2d1" d="M 270.59375 208.574219 L 270.59375 219.582031 L 244.167969 219.582031 L 244.316406 208.574219 Z M 270.59375 208.574219 " fill-opacity="1" fill-rule="nonzero"/><path fill="#fbe2ae" d="M 270.59375 195.183594 L 270.59375 208.574219 L 244.316406 208.574219 L 244.464844 195.304688 L 244.464844 195.273438 C 248.453125 196.882812 252.828125 197.773438 257.382812 197.773438 C 262.054688 197.773438 266.519531 196.851562 270.59375 195.15625 Z M 270.59375 195.183594 " fill-opacity="1" fill-rule="nonzero"/><path fill="#ef9d26" d="M 263.929688 174.359375 C 263.929688 177.988281 260.980469 180.90625 257.382812 180.90625 C 253.75 180.90625 250.832031 177.988281 250.832031 174.359375 C 250.832031 170.519531 253.363281 166 257.382812 163.144531 C 261.398438 166 263.929688 170.519531 263.929688 174.359375 Z M 263.929688 174.359375 " fill-opacity="1" fill-rule="nonzero"/><path fill="#ffc05a" d="M 265.953125 160.316406 C 282.023438 160.316406 273.066406 194.023438 273.066406 194.023438 C 272.261719 194.441406 271.429688 194.828125 270.59375 195.15625 C 266.519531 196.851562 262.054688 197.773438 257.382812 197.773438 C 252.828125 197.773438 248.453125 196.882812 244.464844 195.273438 C 243.511719 194.886719 242.558594 194.472656 241.667969 194.023438 C 241.667969 194.023438 241.667969 194.023438 241.667969 193.996094 C 241.367188 192.835938 233.035156 160.316406 248.78125 160.316406 C 252.023438 160.316406 254.96875 161.417969 257.382812 163.144531 C 253.363281 166 250.832031 170.519531 250.832031 174.359375 C 250.832031 177.988281 253.75 180.90625 257.382812 180.90625 C 260.980469 180.90625 263.929688 177.988281 263.929688 174.359375 C 263.929688 170.519531 261.398438 166 257.382812 163.144531 C 259.792969 161.417969 262.738281 160.316406 265.953125 160.316406 Z M 265.953125 160.316406 " fill-opacity="1" fill-rule="nonzero"/><path fill="#ffc05a" d="M 257.382812 128.304688 C 276.578125 128.304688 292.113281 143.863281 292.113281 163.054688 C 292.113281 176.5625 284.375 188.3125 273.066406 194.023438 C 273.066406 194.023438 282.023438 160.316406 265.953125 160.316406 C 262.738281 160.316406 259.792969 161.417969 257.382812 163.144531 C 254.96875 161.417969 252.023438 160.316406 248.78125 160.316406 C 233.035156 160.316406 241.367188 192.835938 241.667969 193.996094 C 230.355469 188.28125 222.648438 176.5625 222.648438 163.054688 C 222.648438 143.863281 238.183594 128.304688 257.382812 128.304688 Z M 257.382812 128.304688 " fill-opacity="1" fill-rule="nonzero"/><path fill="#8ecaef" d="M 324.730469 294.226562 L 254.613281 294.226562 L 254.613281 272.0625 L 268.125 251.863281 L 279.761719 251.863281 L 279.761719 280.421875 L 310.773438 280.421875 Z M 324.730469 294.226562 " fill-opacity="1" fill-rule="nonzero"/><path fill="#c2e6f9" d="M 372.023438 106.289062 L 372.023438 233.238281 C 372.023438 243.53125 363.691406 251.863281 353.394531 251.863281 L 268.125 251.863281 L 276.21875 239.753906 L 355.089844 239.753906 L 355.089844 99.773438 L 159.644531 99.773438 L 159.644531 239.753906 L 276.21875 239.753906 L 226.339844 251.863281 L 161.367188 251.863281 C 151.070312 251.863281 142.738281 243.53125 142.738281 233.238281 L 142.738281 106.289062 C 142.738281 95.992188 151.070312 87.664062 161.367188 87.664062 L 353.394531 87.664062 C 363.691406 87.664062 372.023438 95.992188 372.023438 106.289062 Z M 372.023438 106.289062 " fill-opacity="1" fill-rule="nonzero"/><path fill="#f47a21" d="M 289.671875 24.175781 L 289.671875 71.65625 C 289.671875 80.492188 282.5 87.664062 273.660156 87.664062 L 143.867188 87.664062 L 93.988281 99.773438 L 115.59375 67.460938 L 115.59375 24.175781 C 115.59375 15.335938 122.769531 8.167969 131.605469 8.167969 L 273.660156 8.167969 C 282.5 8.167969 289.671875 15.335938 289.671875 24.175781 Z M 289.671875 24.175781 " fill-opacity="1" fill-rule="nonzero"/><path fill="#96d4c6" d="M 276.21875 239.753906 L 268.125 251.863281 L 254.613281 272.0625 L 254.613281 315.351562 C 254.613281 324.1875 247.46875 331.355469 238.601562 331.355469 L 96.546875 331.355469 C 87.707031 331.355469 80.535156 324.1875 80.535156 315.351562 L 80.535156 267.867188 C 80.535156 259.03125 87.707031 251.863281 96.546875 251.863281 L 226.339844 251.863281 Z M 276.21875 239.753906 " fill-opacity="1" fill-rule="nonzero"/><path fill="#3a322b" d="M 52.625 276.675781 C 48.945312 266.9375 44.15625 246.925781 52.382812 240.941406 C 56.40625 238.011719 62.972656 240.179688 69.320312 242.265625 C 75.933594 244.445312 82.765625 246.695312 88.179688 243.710938 C 93.75 240.632812 96.820312 234.726562 96.832031 227.085938 C 96.832031 225.808594 97.378906 224.539062 98.332031 223.589844 C 102.316406 219.632812 103.65625 215.335938 102.105469 211.488281 C 100.660156 207.90625 96.96875 206.382812 93.714844 205.039062 C 88.875 203.039062 89.035156 202.628906 89.511719 201.40625 C 90.304688 199.367188 92.433594 199.007812 97.230469 198.929688 C 101.011719 198.867188 105.304688 198.800781 107.152344 195.132812 C 108.308594 192.835938 108.605469 190.027344 108.023438 186.785156 C 107.804688 185.582031 108.582031 184.328125 109.792969 183.933594 C 118.027344 181.230469 122.261719 176 121.71875 169.210938 C 121.128906 161.847656 115.242188 158.449219 109.007812 154.84375 C 103.746094 151.804688 97.785156 148.355469 93.703125 141.894531 C 90.734375 137.195312 90.082031 130.570312 89.324219 122.898438 C 87.941406 108.882812 86.214844 91.4375 68.207031 78.542969 C 40.78125 58.910156 3.507812 72.441406 1.933594 73.027344 C 0.773438 73.464844 0 74.574219 0 75.820312 L 0 366.605469 C 0 368.253906 1.332031 369.582031 2.976562 369.582031 L 80.335938 369.582031 C 81.980469 369.582031 83.3125 368.253906 83.3125 366.605469 C 83.3125 339.398438 66.65625 305.628906 57.707031 287.484375 C 55.320312 282.648438 53.441406 278.832031 52.625 276.675781 Z M 5.953125 363.632812 L 5.953125 77.96875 C 13.730469 75.570312 43.253906 68.003906 64.742188 83.386719 C 80.554688 94.707031 82.070312 109.996094 83.402344 123.488281 C 84.203125 131.5625 84.953125 139.1875 88.671875 145.070312 C 93.539062 152.773438 100.464844 156.777344 106.03125 159.996094 C 112.042969 163.472656 115.460938 165.636719 115.785156 169.683594 C 116.09375 173.578125 113.457031 176.46875 107.9375 178.28125 C 103.90625 179.605469 101.425781 183.710938 102.167969 187.835938 C 102.507812 189.753906 102.394531 191.351562 101.855469 192.433594 C 101.34375 192.914062 98.707031 192.960938 97.132812 192.984375 C 92.835938 193.054688 86.339844 193.160156 83.96875 199.25 C 81.214844 206.316406 87.867188 209.0625 91.445312 210.539062 C 93.613281 211.4375 96.078125 212.453125 96.585938 213.714844 C 97.394531 215.714844 95.398438 218.117188 94.136719 219.371094 C 92.070312 221.417969 90.878906 224.234375 90.878906 227.078125 C 90.875 230.886719 89.902344 235.960938 85.300781 238.503906 C 82.164062 240.226562 76.585938 238.394531 71.183594 236.613281 C 63.773438 234.171875 55.371094 231.398438 48.882812 236.125 C 35.207031 246.074219 45.804688 275.460938 47.054688 278.777344 C 47.972656 281.199219 49.910156 285.136719 52.367188 290.117188 C 60.769531 307.15625 76.132812 338.300781 77.292969 363.632812 Z M 5.953125 363.632812 " fill-opacity="1" fill-rule="nonzero"/><path fill="#3a322b" d="M 353.394531 84.695312 L 287.429688 84.695312 C 290.65625 81.292969 292.644531 76.714844 292.644531 71.671875 L 292.644531 24.179688 C 292.648438 13.714844 284.132812 5.203125 273.664062 5.203125 L 131.601562 5.203125 C 121.132812 5.203125 112.617188 13.714844 112.617188 24.179688 L 112.617188 66.558594 L 91.511719 98.132812 C 90.832031 99.152344 90.84375 100.484375 91.546875 101.488281 C 92.113281 102.296875 93.03125 102.757812 93.988281 102.757812 C 94.21875 102.757812 94.457031 102.734375 94.691406 102.675781 L 144.230469 90.644531 L 146.519531 90.644531 C 142.367188 94.582031 139.761719 100.132812 139.761719 106.289062 L 139.761719 233.238281 C 139.761719 239.394531 142.367188 244.945312 146.519531 248.882812 L 96.554688 248.882812 C 86.085938 248.882812 77.570312 257.394531 77.570312 267.863281 L 77.570312 315.351562 C 77.570312 325.816406 86.085938 334.328125 96.554688 334.328125 L 238.617188 334.328125 C 249.082031 334.328125 257.597656 325.816406 257.597656 315.351562 L 257.597656 297.207031 L 324.71875 297.207031 C 325.921875 297.207031 327.011719 296.480469 327.46875 295.363281 C 327.929688 294.25 327.667969 292.964844 326.8125 292.117188 L 312.867188 278.296875 C 312.304688 277.742188 311.554688 277.433594 310.769531 277.433594 L 282.730469 277.433594 L 282.730469 254.832031 L 353.394531 254.832031 C 365.304688 254.832031 375 245.144531 375 233.234375 L 375 106.292969 C 375 94.382812 365.304688 84.695312 353.394531 84.695312 Z M 143.867188 84.695312 C 143.632812 84.695312 143.394531 84.722656 143.167969 84.78125 L 100.703125 95.09375 L 118.070312 69.113281 C 118.394531 68.621094 118.570312 68.046875 118.570312 67.460938 L 118.570312 24.179688 C 118.570312 16.996094 124.417969 11.15625 131.601562 11.15625 L 273.664062 11.15625 C 280.847656 11.15625 286.695312 16.996094 286.695312 24.179688 L 286.695312 71.667969 C 286.695312 78.851562 280.847656 84.695312 273.664062 84.695312 Z M 251.644531 315.355469 C 251.644531 322.535156 245.800781 328.378906 238.617188 328.378906 L 96.554688 328.378906 C 89.367188 328.378906 83.523438 322.535156 83.523438 315.355469 L 83.523438 267.863281 C 83.523438 260.683594 89.367188 254.835938 96.554688 254.835938 L 226.347656 254.835938 C 226.585938 254.835938 226.820312 254.808594 227.050781 254.753906 L 269.515625 244.4375 L 252.148438 270.421875 C 251.820312 270.910156 251.648438 271.484375 251.648438 272.074219 L 251.648438 315.355469 Z M 162.632812 236.769531 L 162.632812 102.761719 L 352.128906 102.761719 L 352.128906 236.769531 Z M 279.757812 283.386719 L 309.550781 283.386719 L 317.492188 291.257812 L 257.597656 291.257812 L 257.597656 272.976562 L 269.722656 254.832031 L 276.78125 254.832031 L 276.78125 280.410156 C 276.78125 282.054688 278.113281 283.386719 279.757812 283.386719 Z M 369.046875 233.238281 C 369.046875 241.863281 362.027344 248.886719 353.394531 248.886719 L 273.703125 248.886719 L 277.824219 242.722656 L 355.105469 242.722656 C 356.746094 242.722656 358.082031 241.390625 358.082031 239.746094 L 358.082031 99.785156 C 358.082031 98.144531 356.746094 96.8125 355.105469 96.8125 L 159.65625 96.8125 C 158.011719 96.8125 156.679688 98.144531 156.679688 99.785156 L 156.679688 239.742188 C 156.679688 241.390625 158.011719 242.71875 159.65625 242.71875 L 251.378906 242.71875 L 225.992188 248.882812 L 161.363281 248.882812 C 152.730469 248.882812 145.710938 241.863281 145.710938 233.238281 L 145.710938 106.292969 C 145.710938 97.664062 152.730469 90.648438 161.363281 90.648438 L 353.394531 90.648438 C 362.023438 90.648438 369.046875 97.664062 369.046875 106.292969 Z M 369.046875 233.238281 " fill-opacity="1" fill-rule="nonzero"/><path fill="#3a322b" d="M 226.347656 273.0625 L 105.46875 273.0625 C 103.824219 273.0625 102.492188 274.390625 102.492188 276.039062 C 102.492188 277.683594 103.824219 279.011719 105.46875 279.011719 L 226.347656 279.011719 C 227.992188 279.011719 229.324219 277.683594 229.324219 276.039062 C 229.324219 274.390625 227.992188 273.0625 226.347656 273.0625 Z M 226.347656 273.0625 " fill-opacity="1" fill-rule="nonzero"/><path fill="#3a322b" d="M 226.347656 300.148438 L 105.46875 300.148438 C 103.824219 300.148438 102.492188 301.476562 102.492188 303.125 C 102.492188 304.769531 103.824219 306.097656 105.46875 306.097656 L 226.347656 306.097656 C 227.992188 306.097656 229.324219 304.769531 229.324219 303.125 C 229.324219 301.476562 227.992188 300.148438 226.347656 300.148438 Z M 226.347656 300.148438 " fill-opacity="1" fill-rule="nonzero"/><path fill="#3a322b" d="M 264.75 60.519531 L 143.867188 60.519531 C 142.226562 60.519531 140.894531 61.855469 140.894531 63.496094 C 140.894531 65.136719 142.226562 66.472656 143.867188 66.472656 L 264.75 66.472656 C 266.394531 66.472656 267.726562 65.136719 267.726562 63.496094 C 267.726562 61.855469 266.394531 60.519531 264.75 60.519531 Z M 264.75 60.519531 " fill-opacity="1" fill-rule="nonzero"/><path fill="#3a322b" d="M 264.75 33.550781 L 143.867188 33.550781 C 142.226562 33.550781 140.894531 34.882812 140.894531 36.527344 C 140.894531 38.167969 142.226562 39.5 143.867188 39.5 L 264.75 39.5 C 266.394531 39.5 267.726562 38.167969 267.726562 36.527344 C 267.726562 34.882812 266.394531 33.550781 264.75 33.550781 Z M 264.75 33.550781 " fill-opacity="1" fill-rule="nonzero"/><path fill="#3a322b" d="M 257.378906 125.335938 C 236.578125 125.335938 219.65625 142.25 219.65625 163.042969 C 219.65625 177.648438 228.019531 190.308594 240.199219 196.570312 C 240.394531 196.683594 240.589844 196.796875 240.804688 196.863281 C 241.019531 196.96875 241.242188 197.078125 241.460938 197.179688 L 241.199219 219.554688 C 241.191406 220.351562 241.5 221.113281 242.058594 221.679688 C 242.617188 222.242188 243.382812 222.566406 244.175781 222.566406 L 246.226562 222.566406 C 247.457031 226.730469 250.710938 231.902344 257.378906 231.902344 C 264.042969 231.902344 267.296875 226.730469 268.53125 222.566406 L 270.582031 222.566406 C 272.222656 222.566406 273.554688 221.234375 273.554688 219.589844 L 273.554688 197.054688 C 273.792969 196.941406 274.03125 196.832031 274.265625 196.714844 C 274.40625 196.652344 274.546875 196.597656 274.679688 196.515625 C 286.789062 190.230469 295.09375 177.601562 295.09375 163.042969 C 295.097656 142.25 278.179688 125.335938 257.378906 125.335938 Z M 244.546875 165.226562 C 245.5625 163.90625 246.910156 163.292969 248.792969 163.292969 C 249.996094 163.292969 251.144531 163.488281 252.21875 163.828125 C 249.484375 166.957031 247.855469 170.792969 247.855469 174.367188 C 247.855469 179.617188 252.128906 183.890625 257.382812 183.890625 C 262.632812 183.890625 266.90625 179.617188 266.90625 174.367188 C 266.90625 170.792969 265.277344 166.953125 262.542969 163.828125 C 263.617188 163.488281 264.765625 163.292969 265.96875 163.292969 C 267.847656 163.292969 269.195312 163.910156 270.214844 165.226562 C 274.015625 170.160156 272.523438 183.636719 270.542969 191.910156 C 266.53125 193.746094 262.082031 194.796875 257.382812 194.796875 C 252.6875 194.796875 248.242188 193.746094 244.226562 191.914062 C 242.714844 185.472656 240.367188 170.660156 244.546875 165.226562 Z M 253.804688 174.367188 C 253.804688 172.09375 255.136719 169.25 257.382812 167.019531 C 259.621094 169.25 260.957031 172.09375 260.957031 174.367188 C 260.957031 176.335938 259.351562 177.941406 257.382812 177.941406 C 255.410156 177.941406 253.804688 176.335938 253.804688 174.367188 Z M 267.605469 216.613281 L 247.191406 216.613281 L 247.25 211.542969 L 267.605469 211.542969 Z M 257.378906 225.949219 C 254.84375 225.949219 253.40625 224.253906 252.59375 222.5625 L 262.191406 222.5625 C 261.386719 224.25 259.949219 225.949219 257.378906 225.949219 Z M 267.605469 205.59375 L 247.320312 205.59375 L 247.394531 199.363281 C 250.582031 200.242188 253.917969 200.75 257.382812 200.75 C 260.929688 200.75 264.351562 200.222656 267.605469 199.300781 Z M 277.476562 187.613281 C 278.792969 179.832031 279.757812 167.875 274.929688 161.601562 C 272.785156 158.816406 269.6875 157.34375 265.96875 157.34375 C 262.835938 157.34375 259.917969 158.207031 257.382812 159.632812 C 254.84375 158.207031 251.925781 157.34375 248.792969 157.34375 C 245.074219 157.34375 241.976562 158.816406 239.832031 161.601562 C 235.003906 167.875 235.96875 179.835938 237.285156 187.613281 C 230.167969 181.785156 225.613281 172.9375 225.613281 163.042969 C 225.613281 145.53125 239.867188 131.285156 257.382812 131.285156 C 274.894531 131.285156 289.148438 145.53125 289.148438 163.042969 C 289.144531 172.9375 284.59375 181.78125 277.476562 187.613281 Z M 277.476562 187.613281 " fill-opacity="1" fill-rule="nonzero"/><path fill="#3a322b" d="M 257.378906 120.335938 C 259.019531 120.335938 260.355469 119.003906 260.355469 117.359375 L 260.355469 111.011719 C 260.355469 109.371094 259.019531 108.039062 257.378906 108.039062 C 255.734375 108.039062 254.402344 109.371094 254.402344 111.011719 L 254.402344 117.359375 C 254.402344 119.003906 255.734375 120.335938 257.378906 120.335938 Z M 257.378906 120.335938 " fill-opacity="1" fill-rule="nonzero"/><path fill="#3a322b" d="M 222.636719 131.285156 C 223.324219 131.285156 224.015625 131.046875 224.574219 130.566406 C 225.820312 129.492188 225.960938 127.613281 224.890625 126.371094 L 219.808594 120.464844 C 218.738281 119.21875 216.855469 119.082031 215.613281 120.148438 C 214.367188 121.21875 214.226562 123.101562 215.296875 124.34375 L 220.378906 130.25 C 220.96875 130.933594 221.796875 131.285156 222.636719 131.285156 Z M 222.636719 131.285156 " fill-opacity="1" fill-rule="nonzero"/><path fill="#3a322b" d="M 208.867188 156.816406 L 200.09375 156.816406 C 198.453125 156.816406 197.117188 158.148438 197.117188 159.789062 C 197.117188 161.433594 198.453125 162.765625 200.09375 162.765625 L 208.867188 162.765625 C 210.507812 162.765625 211.84375 161.433594 211.84375 159.789062 C 211.84375 158.148438 210.507812 156.816406 208.867188 156.816406 Z M 208.867188 156.816406 " fill-opacity="1" fill-rule="nonzero"/><path fill="#3a322b" d="M 294.945312 120.464844 L 289.867188 126.371094 C 288.792969 127.613281 288.933594 129.492188 290.179688 130.566406 C 290.742188 131.046875 291.429688 131.285156 292.117188 131.285156 C 292.957031 131.285156 293.789062 130.933594 294.378906 130.25 L 299.457031 124.34375 C 300.53125 123.101562 300.390625 121.21875 299.144531 120.148438 C 297.898438 119.082031 296.019531 119.21875 294.945312 120.464844 Z M 294.945312 120.464844 " fill-opacity="1" fill-rule="nonzero"/><path fill="#3a322b" d="M 314.664062 156.816406 L 305.894531 156.816406 C 304.25 156.816406 302.917969 158.148438 302.917969 159.789062 C 302.917969 161.433594 304.25 162.765625 305.894531 162.765625 L 314.664062 162.765625 C 316.304688 162.765625 317.640625 161.433594 317.640625 159.789062 C 317.640625 158.148438 316.304688 156.816406 314.664062 156.816406 Z M 314.664062 156.816406 " fill-opacity="1" fill-rule="nonzero"/></svg>