<?xml version="1.0" encoding="UTF-8"?>
<svg xmlns="http://www.w3.org/2000/svg" xmlns:xlink="http://www.w3.org/1999/xlink" viewBox="0 0 120 120" width="120px" height="120px">
<g id="surface14396341">
<path style=" stroke:none;fill-rule:nonzero;fill:rgb(100%,100%,100%);fill-opacity:1;" d="M 60 12 C 33.492188 12 12 33.492188 12 60 C 12 86.507812 33.492188 108 60 108 C 86.507812 108 108 86.507812 108 60 C 108 33.492188 86.507812 12 60 12 Z M 76.722656 44 L 69.808594 44 C 65.503906 44 64 46.273438 64 50.871094 L 64 56 L 76.617188 56 L 74.902344 68 L 64 68 L 64 99.800781 C 62.683594 99.929688 61.351562 100 60 100 C 57.261719 100 54.585938 99.71875 52 99.195312 L 52 68 L 40 68 L 40 56 L 52 56 L 52 49.554688 C 52 37.355469 57.945312 32 68.085938 32 C 72.941406 32 75.507812 32.359375 76.722656 32.523438 Z M 76.722656 44 "/>
</g>
</svg>
