<?xml version="1.0" encoding="UTF-8"?>
<svg xmlns="http://www.w3.org/2000/svg" xmlns:xlink="http://www.w3.org/1999/xlink" viewBox="0 0 120 120" width="120px" height="120px">
<g id="surface14332276">
<path style=" stroke:none;fill-rule:nonzero;fill:rgb(100%,100%,100%);fill-opacity:1;" d="M 60 16 C 43.257812 16 21.523438 20.195312 21.523438 20.195312 L 21.46875 20.257812 C 13.84375 21.476562 8 28.03125 8 36 L 8 84.007812 C 8.015625 91.871094 13.742188 98.554688 21.507812 99.78125 L 21.523438 99.804688 C 21.523438 99.804688 43.257812 104.007812 60 104.007812 C 76.742188 104.007812 98.476562 99.804688 98.476562 99.804688 L 98.484375 99.796875 C 106.261719 98.574219 111.992188 91.878906 112 84.007812 L 112 36 C 111.988281 28.132812 106.261719 21.445312 98.492188 20.21875 L 98.476562 20.195312 C 98.476562 20.195312 76.742188 16 60 16 Z M 48 41.59375 L 80 60 L 48 78.40625 Z M 48 41.59375 "/>
</g>
</svg>
